<svg width="91.838593" height="80.000000" viewBox="0 0 91.8386 80" fill="none" xmlns="http://www.w3.org/2000/svg" xmlns:xlink="http://www.w3.org/1999/xlink">
	<desc>
			Created with Pixso.
	</desc>
	<defs/>
	<path id="Vector" d="M45.9192 31.2109C54.524 31.2109 61.5246 24.21 61.5246 15.6055C61.5246 7.00049 54.524 0 45.9192 0C37.3144 0 30.3138 7.00049 30.3138 15.6055C30.3138 24.21 37.3144 31.2109 45.9192 31.2109ZM45.9192 5.38135C51.5569 5.38135 56.1434 9.96777 56.1434 15.6055C56.1434 21.2432 51.5569 25.8296 45.9192 25.8296C40.2816 25.8296 35.695 21.2432 35.695 15.6055C35.695 9.96777 40.2816 5.38135 45.9192 5.38135Z" fill="#2352DE" fill-opacity="1.000000" fill-rule="nonzero"/>
	<path id="Vector" d="M77.4887 31.2104C82.9285 31.2104 87.3541 26.7847 87.3541 21.3447C87.3541 15.9053 82.9285 11.4795 77.4887 11.4795C72.0489 11.4795 67.6232 15.9053 67.6232 21.3447C67.6232 26.7847 72.0489 31.2104 77.4887 31.2104ZM77.4887 16.8608C79.9613 16.8608 81.973 18.8721 81.973 21.3447C81.973 23.8174 79.9613 25.8291 77.4887 25.8291C75.0161 25.8291 73.0044 23.8174 73.0044 21.3447C73.0044 18.8721 75.0161 16.8608 77.4887 16.8608Z" fill="#2352DE" fill-opacity="1.000000" fill-rule="nonzero"/>
	<path id="Vector" d="M79.6591 37.3096L75.4977 37.3096C70.5938 37.3096 66.3606 40.2065 64.4316 44.3682C60.4602 40.0327 54.7556 37.3096 48.4266 37.3096L43.412 37.3096C37.083 37.3096 31.3784 40.0327 27.407 44.3682C25.4778 40.2065 21.2446 37.3096 16.3408 37.3096L12.1794 37.3096C5.46368 37.3096 0 42.7402 0 49.4155L0 69.0044C0 71.9023 2.36664 74.2603 5.2757 74.2603L21.7289 74.2603C22.0048 77.4707 24.7047 80 27.986 80L63.8526 80C67.1337 80 69.8336 77.4707 70.1097 74.2603L86.3749 74.2603C89.3877 74.2603 91.8386 71.8188 91.8386 68.8179L91.8386 49.4155C91.8384 42.7402 86.3748 37.3096 79.6591 37.3096ZM5.38116 49.4155C5.38116 45.7075 8.43085 42.6909 12.1794 42.6909L16.3408 42.6909C20.0893 42.6909 23.139 45.7075 23.139 49.4155L23.139 51.2578C21.3297 55.9688 21.704 58.792 21.704 68.8789L5.38116 68.8789L5.38116 49.4155ZM64.7533 73.7183C64.7533 74.2148 64.3493 74.6191 63.8526 74.6191L27.9858 74.6191C27.4891 74.6191 27.0851 74.2148 27.0851 73.7183L27.0851 59.0176C27.0851 50.0146 34.4093 42.6909 43.4118 42.6909L48.4265 42.6909C57.4291 42.6909 64.7533 50.0146 64.7533 59.0176L64.7533 73.7183ZM86.4573 68.8179C86.4573 68.9106 87.4603 68.8789 70.1344 68.8789C70.1344 58.7173 70.5059 55.9609 68.6995 51.2578L68.6995 49.4155C68.6995 45.7075 71.7491 42.6909 75.4977 42.6909L79.6591 42.6909C83.4076 42.6909 86.4573 45.7075 86.4573 49.4155L86.4573 68.8179Z" fill="#2352DE" fill-opacity="1.000000" fill-rule="nonzero"/>
	<path id="Vector" d="M14.3498 31.2104C19.7896 31.2104 24.2152 26.7847 24.2152 21.3447C24.2152 15.9053 19.7896 11.4795 14.3498 11.4795C8.90994 11.4795 4.48431 15.9053 4.48431 21.3447C4.48431 26.7847 8.90994 31.2104 14.3498 31.2104ZM14.3498 16.8608C16.8224 16.8608 18.8341 18.8721 18.8341 21.3447C18.8341 23.8174 16.8224 25.8291 14.3498 25.8291C11.8771 25.8291 9.86548 23.8174 9.86548 21.3447C9.86548 18.8721 11.8771 16.8608 14.3498 16.8608Z" fill="#2352DE" fill-opacity="1.000000" fill-rule="nonzero"/>
</svg>
