<svg width="79.636414" height="80.000000" viewBox="0 0 79.6364 80" fill="none" xmlns="http://www.w3.org/2000/svg" xmlns:xlink="http://www.w3.org/1999/xlink">
	<desc>
			Created with Pixso.
	</desc>
	<defs/>
	<path id="Vector" d="M48.8686 15.4185C51.9439 12.9341 52.6401 10.2783 52.6825 8.48779C52.7859 4.13232 49.3464 0.944824 48.9537 0.595703C47.9812 -0.269043 46.4915 -0.182129 45.6264 0.790527C44.7614 1.76318 44.8486 3.25293 45.8212 4.11816C45.8433 4.1377 48.0223 6.17627 47.9701 8.37646C47.9423 9.54834 47.2673 10.6523 45.9065 11.7515C42.8312 14.2358 42.135 16.8916 42.0926 18.6816C41.989 23.0376 45.4287 26.2251 45.8212 26.5742C46.2714 26.9746 46.8332 27.1719 47.3928 27.1719C48.0422 27.1719 48.6886 26.9062 49.1532 26.3833C50.0182 25.4106 49.9358 23.9253 48.9631 23.0601C48.3445 22.4976 46.7511 20.6318 46.8053 18.7759C46.8395 17.6104 47.5143 16.5122 48.8686 15.4185Z" fill="#2352DE" fill-opacity="1.000000" fill-rule="nonzero"/>
	<path id="Vector" d="M33.9147 15.4185C36.99 12.9341 37.6863 10.2783 37.7286 8.48779C37.832 4.13232 34.3925 0.944824 33.9999 0.595703C33.0275 -0.269043 31.5377 -0.182129 30.6725 0.790527C29.8075 1.76318 29.8947 3.25293 30.8674 4.11816C30.8894 4.1377 33.0685 6.17627 33.0163 8.37646C32.9884 9.54834 32.3134 10.6523 30.9527 11.7515C27.8774 14.2358 27.1811 16.8916 27.1388 18.6816C27.0353 23.0376 30.4749 26.2251 30.8674 26.5742C31.3175 26.9746 31.8794 27.1719 32.4389 27.1719C33.0883 27.1719 33.7347 26.9062 34.1994 26.3833C35.0644 25.4106 34.9819 23.9253 34.0092 23.0601C33.3906 22.4976 31.7972 20.6318 31.8514 18.7759C31.8856 17.6104 32.5605 16.5122 33.9147 15.4185Z" fill="#2352DE" fill-opacity="1.000000" fill-rule="nonzero"/>
	<path id="Vector" d="M67.6553 38.4609L64.8659 38.4609L64.8659 36.7324C64.8659 35.4307 63.8108 34.3755 62.5091 34.3755L2.35688 34.3755C1.05531 34.3755 0 35.4307 0 36.7324L0 49.1709C0 60.1621 6.0836 69.8267 15.217 75.2866L2.35828 75.2866C1.05672 75.2866 0.00140762 76.3418 0.00140762 77.6431C0.00140762 78.9448 1.05641 80 2.35828 80L62.5092 80C63.8108 80 64.8661 78.9448 64.8661 77.6431C64.8661 76.3418 63.8109 75.2866 62.5092 75.2866L49.6491 75.2866C54.8428 72.1816 59.0502 67.7178 61.7133 62.4224L67.6555 62.4224C74.2617 62.4224 79.6364 57.0479 79.6364 50.4414C79.6364 43.8354 74.2616 38.4609 67.6553 38.4609ZM60.1523 49.1709C60.1522 63.5713 47.7173 75.2866 32.433 75.2866C17.1486 75.2866 4.71375 63.5713 4.71375 49.1709L4.71375 39.0894L60.1522 39.0894L60.1522 49.1709L60.1523 49.1709ZM67.6553 57.709L63.5997 57.709C64.4233 54.9966 64.8659 52.1318 64.8659 49.1709L64.8659 43.1743L67.6553 43.1743C71.6625 43.1743 74.9227 46.4346 74.9227 50.4414C74.9227 54.4487 71.6625 57.709 67.6553 57.709Z" fill="#2352DE" fill-opacity="1.000000" fill-rule="nonzero"/>
	<path id="Vector" d="M18.9608 15.4185C22.0361 12.9341 22.7324 10.2783 22.7747 8.48779C22.8782 4.13232 19.4386 0.944824 19.046 0.595703C18.0735 -0.269043 16.5838 -0.182129 15.7186 0.790527C14.8536 1.76318 14.9408 3.25293 15.9135 4.11816C15.9355 4.1377 18.1146 6.17627 18.0624 8.37646C18.0346 9.54834 17.3596 10.6523 15.9988 11.7515C12.9235 14.2358 12.2272 16.8916 12.1849 18.6816C12.0816 23.0376 15.5211 26.2251 15.9136 26.5742C16.3627 26.9736 16.9219 27.1699 17.4791 27.1699C18.1286 27.1699 18.7754 26.9028 19.2411 26.3794C20.1061 25.4067 20.019 23.917 19.0463 23.0518C19.0243 23.0322 16.8452 20.9937 16.8974 18.7935C16.9249 17.6216 17.5999 16.5171 18.9608 15.4185Z" fill="#2352DE" fill-opacity="1.000000" fill-rule="nonzero"/>
</svg>
