<svg width="44.000000" height="44.000000" viewBox="0 0 44 44" fill="none" xmlns="http://www.w3.org/2000/svg" xmlns:xlink="http://www.w3.org/1999/xlink">
	<desc>
			Created with Pixso.
	</desc>
	<defs>
		<clipPath id="clip20948_16">
			<rect id="instagram" width="44.000000" height="44.000000" fill="white" fill-opacity="0"/>
		</clipPath>
	</defs>
	<rect id="instagram" width="44.000000" height="44.000000" fill="#FFFFFF" fill-opacity="0"/>
	<g clip-path="url(#clip20948_16)">
		<path id="Vector" d="M31.2188 0L12.7813 0C5.73364 0 0 5.73389 0 12.7812L0 31.2188C0 38.2661 5.73364 44 12.7813 44L31.2187 44C38.2664 44 44 38.2661 44 31.2188L44 12.7812C44 5.73389 38.2664 0 31.2188 0ZM40.5625 31.2188C40.5625 36.3711 36.3709 40.5625 31.2188 40.5625L12.7813 40.5625C7.62909 40.5625 3.4375 36.3711 3.4375 31.2188L3.4375 12.7812C3.4375 7.62891 7.62909 3.4375 12.7813 3.4375L31.2187 3.4375C36.3709 3.4375 40.5625 7.62891 40.5625 12.7812L40.5625 31.2188Z" fill="#2352DE" fill-opacity="1.000000" fill-rule="nonzero"/>
		<path id="Vector" d="M22 10.1406C15.4607 10.1406 10.1406 15.4604 10.1406 22C10.1406 28.5396 15.4607 33.8594 22 33.8594C28.5393 33.8594 33.8594 28.5396 33.8594 22C33.8594 15.4604 28.5393 10.1406 22 10.1406ZM22 30.4219C17.3562 30.4219 13.5781 26.644 13.5781 22C13.5781 17.356 17.3562 13.5781 22 13.5781C26.6438 13.5781 30.4219 17.356 30.4219 22C30.4219 26.644 26.6438 30.4219 22 30.4219Z" fill="#2352DE" fill-opacity="1.000000" fill-rule="nonzero"/>
		<path id="Vector" d="M35.75 9.96875C35.75 10.918 34.9805 11.6875 34.0312 11.6875C33.082 11.6875 32.3125 10.918 32.3125 9.96875C32.3125 9.01953 33.082 8.25 34.0312 8.25C34.9805 8.25 35.75 9.01953 35.75 9.96875Z" fill="#2352DE" fill-opacity="1.000000" fill-rule="evenodd"/>
	</g>
</svg>
