<svg width="80.313721" height="80.000000" viewBox="0 0 80.3137 80" fill="none" xmlns="http://www.w3.org/2000/svg" xmlns:xlink="http://www.w3.org/1999/xlink">
	<desc>
			Created with Pixso.
	</desc>
	<defs/>
	<path id="Vector" d="M71.6863 0L27.7647 0C23.0075 0 19.1373 3.87012 19.1373 8.62744L19.1373 28.2354L8.62744 28.2354C3.87027 28.2354 0 32.1055 0 36.8628L0 61.9609C0 66.7178 3.87027 70.5884 8.62744 70.5884L23.0544 70.5884L28.6304 78.9521C29.0668 79.6069 29.8016 80 30.5882 80C31.3749 80 32.1096 79.6069 32.5461 78.9521L38.122 70.5884L52.549 70.5884C57.3062 70.5884 61.1765 66.7178 61.1765 61.9609L61.1765 42.353L71.6863 42.353C76.4435 42.353 80.3137 38.4824 80.3137 33.7256L80.3137 8.62744C80.3137 3.87012 76.4435 0 71.6863 0ZM56.4706 61.9609C56.4706 64.123 54.7114 65.8823 52.549 65.8823L36.8627 65.8823C36.0761 65.8823 35.3413 66.2754 34.9049 66.9302L30.5882 73.4053L26.2715 66.9302C25.8351 66.2754 25.1004 65.8823 24.3137 65.8823L8.62744 65.8823C6.4651 65.8823 4.70589 64.123 4.70589 61.9609L4.70589 36.8628C4.70589 34.7002 6.4651 32.9414 8.62744 32.9414L19.1373 32.9414L19.1373 33.7256C19.1373 35.1372 19.4803 36.4697 20.0839 37.647L11.7647 37.647C10.4653 37.647 9.41177 38.7007 9.41177 40C9.41177 41.2993 10.4653 42.353 11.7647 42.353L42.1918 42.353L45.3291 47.0586L11.7647 47.0586C10.4653 47.0586 9.41177 48.1123 9.41177 49.4116C9.41177 50.7114 10.4653 51.7646 11.7647 51.7646L49.7255 51.7646C50.5123 51.7646 51.2469 51.3716 51.6831 50.7168L56.4706 43.5356L56.4706 61.9609ZM75.6078 33.7256C75.6078 35.8877 73.8486 37.647 71.6863 37.647L56 37.647C55.2132 37.647 54.4786 38.0405 54.0424 38.6948L49.7255 45.1699L45.4086 38.6948C44.9724 38.0405 44.2376 37.647 43.451 37.647L27.7647 37.647C25.6024 37.647 23.8431 35.8877 23.8431 33.7256L23.8431 8.62744C23.8431 6.46533 25.6024 4.70605 27.7647 4.70605L71.6863 4.70605C73.8486 4.70605 75.6078 6.46533 75.6078 8.62744L75.6078 33.7256Z" fill="#2352DE" fill-opacity="1.000000" fill-rule="nonzero"/>
	<path id="Vector" d="M49.4117 56.4707L11.7647 56.4707C10.4652 56.4707 9.41174 57.5244 9.41174 58.8237C9.41174 60.123 10.4652 61.1768 11.7647 61.1768L49.4117 61.1768C50.7112 61.1768 51.7647 60.123 51.7647 58.8237C51.7647 57.5244 50.7112 56.4707 49.4117 56.4707Z" fill="#2352DE" fill-opacity="1.000000" fill-rule="nonzero"/>
	<path id="Vector" d="M61.0442 16.3828L54.6811 15.458L51.8354 9.69189C51.439 8.88867 50.6211 8.38037 49.7254 8.38037C48.8297 8.38037 48.0119 8.88867 47.6155 9.69189L44.7698 15.458L38.4067 16.3828C37.5204 16.5112 36.7839 17.1323 36.5072 17.9844C36.2304 18.8359 36.4613 19.771 37.1025 20.396L41.7069 24.8843L40.6199 31.2217C40.4685 32.1045 40.8315 32.9966 41.556 33.5229C42.2804 34.0493 43.2409 34.1187 44.034 33.7021L49.7254 30.71L55.4167 33.7021C55.761 33.8828 56.1369 33.9722 56.5115 33.9722C56.9993 33.9722 57.485 33.8208 57.8947 33.5229C58.6193 32.9966 58.9822 32.1045 58.8308 31.2217L57.7438 24.8843L62.3482 20.396C62.9896 19.771 63.2205 18.8359 62.9436 17.9844C62.6669 17.1323 61.9306 16.5117 61.0442 16.3828ZM53.5733 22.3779C53.0186 22.9185 52.7656 23.6973 52.8966 24.4604L53.3868 27.3179L50.8205 25.9688C50.4776 25.7886 50.1016 25.6987 49.7256 25.6987C49.3496 25.6987 48.9734 25.7886 48.6307 25.9688L46.0644 27.3179L46.5546 24.4604C46.6856 23.6973 46.4326 22.9185 45.8779 22.3779L43.8018 20.354L46.6712 19.937C47.4376 19.8257 48.1 19.3447 48.4428 18.6504L49.7259 16.0503L51.0091 18.6504C51.3518 19.3447 52.0142 19.8257 52.7806 19.937L55.65 20.354L53.5733 22.3779Z" fill="#2352DE" fill-opacity="1.000000" fill-rule="nonzero"/>
</svg>
