<svg width="44.000000" height="45.222168" viewBox="0 0 44 45.2222" fill="none" xmlns="http://www.w3.org/2000/svg" xmlns:xlink="http://www.w3.org/1999/xlink">
	<desc>
			Created with Pixso.
	</desc>
	<defs>
		<clipPath id="clip20948_41">
			<rect id="telegram" width="44.000000" height="45.222221" fill="white" fill-opacity="0"/>
		</clipPath>
	</defs>
	<rect id="telegram" width="44.000000" height="45.222221" fill="#FFFFFF" fill-opacity="0"/>
	<g clip-path="url(#clip20948_41)">
		<path id="Vector" d="M43.3206 4.49219C42.7831 3.81689 41.9781 3.44482 41.0536 3.44482C40.5511 3.44482 40.0187 3.55371 39.4715 3.76855L2.22632 18.3809C0.249756 19.1562 -0.0164185 20.3198 0.000671387 20.9443C0.0178223 21.5688 0.347778 22.7148 2.36395 23.374C2.37604 23.3779 2.38812 23.3818 2.40021 23.3853L10.1259 25.6572L14.3039 37.9365C14.8736 39.6108 16.1522 40.6504 17.6414 40.6504C18.5803 40.6504 19.5038 40.2461 20.3121 39.4814L25.0908 34.9595L32.0218 40.6953C32.0225 40.6963 32.0235 40.6963 32.0242 40.6973L32.09 40.7515C32.096 40.7563 32.1024 40.7617 32.1084 40.7666C32.8788 41.3804 33.7197 41.7051 34.5412 41.7051L34.5415 41.7051C36.1465 41.7051 37.4244 40.4844 37.7968 38.5947L43.8993 7.62451C44.1443 6.38184 43.9389 5.26904 43.3206 4.49219ZM12.7104 25.2256L27.6155 17.3999L18.3346 27.5352C18.1825 27.7012 18.0748 27.9043 18.0217 28.1255L16.2321 35.5762L12.7104 25.2256ZM18.5656 37.5322C18.5038 37.5908 18.4417 37.6426 18.3796 37.6904L20.0399 30.7793L23.0601 33.2788L18.5656 37.5322ZM41.3726 7.09863L35.27 38.0693C35.2112 38.3657 35.0236 39.0552 34.5412 39.0552C34.3029 39.0552 34.0034 38.9219 33.6969 38.6792L25.843 32.1797C25.842 32.1787 25.8407 32.1777 25.8394 32.1768L21.1661 28.3091L34.5875 13.6519C35.0172 13.1826 35.0562 12.4639 34.6798 11.9487C34.3032 11.4331 33.6207 11.271 33.0624 11.564L10.9879 23.1548L3.15723 20.8521L40.391 6.24414C40.7055 6.12061 40.925 6.09473 41.0536 6.09473C41.1325 6.09473 41.2728 6.104 41.3249 6.16992C41.3934 6.25586 41.4807 6.54883 41.3726 7.09863Z" fill="#2352DE" fill-opacity="1.000000" fill-rule="nonzero"/>
	</g>
</svg>
