<svg width="97.148621" height="80.000000" viewBox="0 0 97.1486 80" fill="none" xmlns="http://www.w3.org/2000/svg" xmlns:xlink="http://www.w3.org/1999/xlink">
	<desc>
			Created with Pixso.
	</desc>
	<defs/>
	<path id="Vector" d="M89.5656 11.5024L69.0856 11.5024L69.0856 7.8374C69.0856 3.51611 65.5701 0 61.2482 0L35.9004 0C31.5791 0 28.063 3.51562 28.063 7.8374L28.063 11.5024L7.58331 11.5024C3.40186 11.5024 0 14.9038 0 19.085L0 72.417C0 76.5981 3.40186 80 7.58331 80L89.5653 80C93.7468 80 97.1486 76.5981 97.1486 72.417L97.1486 19.085C97.1489 14.9043 93.7473 11.5024 89.5656 11.5024ZM34.6859 7.8374C34.6859 7.16748 35.231 6.62256 35.9006 6.62256L61.2485 6.62256C61.9182 6.62256 62.4633 7.16748 62.4633 7.8374L62.4633 11.5024L34.6859 11.5024L34.6859 7.8374ZM7.58356 18.125L89.5656 18.125C90.0953 18.125 90.5264 18.5557 90.5264 19.085L90.5264 36.4619C80.2646 40.2686 64.7862 42.5171 48.5465 42.5171C32.3425 42.5171 16.8853 40.2764 6.6225 36.4824L6.6225 19.085C6.6228 18.5557 7.05377 18.125 7.58356 18.125ZM89.5656 73.3774L7.58356 73.3774C7.05377 73.3774 6.6228 72.9468 6.6228 72.417L6.6228 43.4985C16.0156 46.5972 28.3651 48.5337 41.8233 49.019C41.8225 49.0576 41.8177 49.0947 41.8177 49.1333L41.8177 50.5938C41.8177 53.3315 44.045 55.5591 46.783 55.5591L50.3663 55.5591C53.1044 55.5591 55.3317 53.3315 55.3317 50.5938L55.3317 49.1333C55.3317 49.0947 55.3264 49.0566 55.3261 49.0176C68.7928 48.5278 81.1404 46.5859 90.5269 43.481L90.5269 72.417C90.5264 72.9468 90.0953 73.3774 89.5656 73.3774Z" fill="#2352DE" fill-opacity="1.000000" fill-rule="nonzero"/>
</svg>
